<svg viewBox="0 0 100 100" xmlns="http://www.w3.org/2000/svg">
<path d="M70.4545 0H29.5455C13.25 0 0 13.25 0 29.5455V70.4545C0 86.75 13.25 100 29.5455 100H70.4545C86.75 100 100 86.75 100 70.4545V29.5455C100 13.25 86.75 0 70.4545 0ZM50 75C36.2045 75 25 63.7955 25 50C25 36.2045 36.2045 25 50 25C63.7955 25 75 36.2045 75 50C75 63.7955 63.7955 75 50 75ZM77.2727 27.2727C74.7727 27.2727 72.7273 25.2273 72.7273 22.7273C72.7273 20.2273 74.7727 18.1818 77.2727 18.1818C79.7727 18.1818 81.8182 20.2273 81.8182 22.7273C81.8182 25.2273 79.7727 27.2727 77.2727 27.2727Z" />
<path d="M70.455 50C70.455 61.2727 61.2732 70.4545 50.0004 70.4545C38.7277 70.4545 29.5459 61.2727 29.5459 50C29.5459 38.7272 38.7277 29.5454 50.0004 29.5454C61.2732 29.5454 70.455 38.7272 70.455 50Z" />
</svg>
