<svg width="100" height="100" viewBox="0 0 100 100" xmlns="http://www.w3.org/2000/svg">
<path fill-rule="evenodd" clip-rule="evenodd" d="M11 0C4.92487 0 0 4.92487 0 11V89C0 95.0751 4.92487 100 11 100H89C95.0751 100 100 95.0751 100 89V11C100 4.92487 95.0751 0 89 0H11ZM22.5 32C27.7467 32 32 27.7467 32 22.5C32 17.2533 27.7467 13 22.5 13C17.2533 13 13 17.2533 13 22.5C13 27.7467 17.2533 32 22.5 32ZM15 38V86H30V38H15ZM54 37.9999H39V85.9999H54V61.9999V60.1249C54.1875 56.7499 55.5 49.9999 63 49.9999C69.3849 49.9999 71 54.5 71 62V85.9999H86V61.9999C86 61.4134 86.0043 60.8127 86.0086 60.2013C86.0781 50.3899 86.1672 37.8203 69 36.4999C62.5 36 56 40.4999 54 44.9999V37.9999Z" />
</svg>
