<svg viewBox="0 0 100 100" xmlns="http://www.w3.org/2000/svg">
<path fill-rule="evenodd" clip-rule="evenodd" d="M88 42V12H66V42H88ZM80 34H74V20H80V34Z" />
<path d="M62 12V42H54V20L51 24H47L44 20V42H36V12H44L49 16L54 12H62Z" />
<path d="M32 12V42H24V12H32Z" />
<path d="M64 58V88H56V66L53 70H49L46 66V88H38V58H46L51 62L56 58H64Z" />
<path d="M76 58V88H68V58H76Z" />
<path fill-rule="evenodd" clip-rule="evenodd" d="M0 100V0H100V100H0ZM8 8V46H92V8H20V42H12V8H8ZM88 42V12H66V42H88ZM62 12V42H54V20L51 24H47L44 20V42H36V12H44L49 16L54 12H62ZM32 12V42H24V12H32ZM74 34H80V20H74V34ZM8 92H92V54H88V88H80V54H8V92ZM64 58V88H56V66L53 70H49L46 66V88H38V58H46L51 62L56 58H64ZM76 58V88H68V58H76Z"  />
<path fill-rule="evenodd" clip-rule="evenodd" d="M34 58H12V76H26V80H12V88H34V70H20V66H34V58Z" />
</svg>
