<svg>
<g clipPath="url(#clip0_1441_16)">
<rect width="100" height="7.69231"/>
<rect y="92.3077" width="100" height="7.69231"  />
<rect x="13.2305" y="7.69231" width="7.69231" height="35.3846"/>
<path fillRule="evenodd" clipRule="evenodd" d="M66 10.7692H72.7655H88.4615V43.0769H66V10.7692ZM72.7655 17.7926H81.696V36.0535H72.7655V17.7926Z"/>
<rect x="24.7695" y="10.7692" width="7.69231" height="32.3077"/>
<path d="M11.5381 56.9231H33.9996V63.9465H11.5381V56.9231Z"/>
<path d="M11.5381 82.2074H33.9996V89.2308H11.5381V82.2074Z"/>
<path d="M27.0988 69.5652H33.9996V82.2074H27.0988V69.5652Z"/>
<path d="M11.5381 63.9465H17.7624V69.5652H11.5381V63.9465Z"/>
<path d="M11.5381 69.5652H29.9403V76.5886H11.5381V69.5652Z"/>
<path d="M36.3076 10.7692H43.1816L49.2307 21.4448L55.2798 10.7692H62.1538V43.0769H55.2798V24.6756L51.9803 30.7157H46.5498L43.1816 24.6756V43.0769H36.3076V10.7692Z"/>
<path d="M37.8457 56.9231H44.7197L50.7688 67.5987L56.8179 56.9231H63.6919V89.2308H56.8179V70.8294L53.5184 76.8696H48.0879L44.7197 70.8294V89.2308H37.8457V56.9231Z"/>
<rect x="67.5381" y="56.9231" width="7.69231" height="32.3077"/>
<rect x="79.0771" y="53.8462" width="7.69231" height="35.3846"/>
<rect x="7.69238" y="46.1538" width="84.6154" height="7.69231"/>
<rect x="92.3076" y="7.69231" width="7.69231" height="84.6154"/>
<rect y="7.69231" width="7.69231" height="84.6154"/>
</g>
<defs>
<clipPath id="clip0_1441_16">
<rect width="100" height="100" fill="white"/>
</clipPath>
</defs>
</svg>
